<?xml version="1.0" encoding="iso-8859-1"?>
<!-- Generator: Adobe Illustrator 19.0.0, SVG Export Plug-In . SVG Version: 6.00 Build 0)  -->
<svg version="1.1" id="Layer_1" xmlns="http://www.w3.org/2000/svg" xmlns:xlink="http://www.w3.org/1999/xlink" x="0px" y="0px"
	 viewBox="0 0 496.2 496.2" style="enable-background:new 0 0 496.2 496.2;" xml:space="preserve">
<path style="fill:#25B7D3;" d="M496.2,248.1C496.2,111.1,385.1,0,248.1,0C111.1,0,0,111.1,0,248.1s111.1,248.1,248.1,248.1
	S496.2,385.1,496.2,248.1z"/>
<path style="fill:#383838;" d="M71.6,292.7l4.8,0.6c18.6-1.7,83.8-8.8,88.3-9.3c9.6-0.9,10.2-3.2,10.2-3.2v-54.5L96,230.2v19
	c0,0,0,16.4-14.8,18.3l-5.6,0.6c0,0-4,1.2-4,5.6C71.6,278,71.6,292.7,71.6,292.7z"/>
<path style="fill:#2B2A2A;" d="M71.6,292.7l4.8,0.6c18.6-1.7,83.8-8.8,88.3-9.3c9.6-0.9,10.2-3.2,10.2-3.2l-74.1-50l-4.8-0.6v19
	c0,0,0,16.4-14.8,18.3l-5.6,0.6c0,0-4,1.2-4,5.6C71.6,278,71.6,292.7,71.6,292.7z"/>
<path style="fill:#424242;" d="M76.4,293.3c0,0,87.8-8.2,93.1-8.7c9.6-0.9,10.2-3.2,10.2-3.2v-55.7c0,0-2.8,1.5-8.6,1.5l-70.2,3.6
	v19c0,0,0,16.4-14.8,18.3l-5.6,0.6c0,0-4,1.2-4,5.6C76.4,278.6,76.4,293.3,76.4,293.3z"/>
<polygon style="fill:#C9C9C5;" points="208.9,313 76.3,277.1 76.3,274.4 214.3,307.6 "/>
<polygon style="fill:#191919;" points="200.9,307.9 76.3,277.1 76.3,287.3 200.9,320.2 "/>
<polygon style="fill:#F2F2ED;" points="237.8,298.1 100.9,269.7 76.3,274.4 208.8,306.7 "/>
<polygon style="fill:#3A3A3A;" points="119.4,302.4 129.6,373.9 137.4,376.7 146,374.3 154.6,311 137.5,306.8 "/>
<polygon style="fill:#191919;" points="119.4,302.4 129.6,373.9 137.4,376.7 137.5,306.8 "/>
<polygon style="fill:#AF9651;" points="131.6,393.3 129.6,373.9 137.4,376.7 146,374.3 142.8,393.7 137.3,395.1 "/>
<polygon style="fill:#99833D;" points="131.6,393.3 129.6,373.9 137.4,376.7 137.3,395.1 "/>
<polygon style="fill:#3A3A3A;" points="334.1,281.2 344.3,352.8 352.1,355.6 360.7,353.2 369.3,289.8 352.2,285.7 "/>
<polygon style="fill:#191919;" points="334.1,281.2 344.3,352.8 352.1,355.6 352.2,285.7 "/>
<polygon style="fill:#AF9651;" points="346.3,372.2 344.3,352.8 352.1,355.6 360.7,353.2 357.5,372.6 352,373.9 "/>
<polygon style="fill:#99833D;" points="346.3,372.2 344.3,352.8 352.1,355.6 352,373.9 "/>
<polygon style="fill:#3A3A3A;" points="169.7,400.5 195.5,410.5 218.4,407.6 218.4,414 195.4,417.8 169.7,407.2 "/>
<polygon style="fill:#424242;" points="218.4,407.6 192.5,397.4 169.7,400.5 195.5,410.5 "/>
<g>
	<polygon style="fill:#262626;" points="169.7,400.5 195.5,410.5 195.4,417.8 169.7,407.2 	"/>
	<polygon style="fill:#262626;" points="188.2,404.1 183.5,402.3 183.5,321.4 188.2,321.1 	"/>
</g>
<polygon style="fill:#3A3A3A;" points="192.6,403.7 187.8,404.1 187.8,321.1 192.6,321.1 "/>
<polygon style="fill:#262626;" points="200,407.2 195.3,405.4 195.3,324.6 200,324.3 "/>
<polygon style="fill:#3A3A3A;" points="204.3,406.7 199.5,407.2 199.5,324.3 204.3,324.3 "/>
<polygon style="fill:#2B2A2A;" points="206.6,321.7 71.6,286 71.6,292.7 206.6,328.4 "/>
<path style="fill:#232323;" d="M174.9,226.3l115.4-4.3c0,0,25.5,0.9,37.9,1.5c0,0,64.4,1.4,64.4,6.9v19.8l-173.7-11.4L174.9,226.3z"
	/>
<path style="fill:#471518;" d="M172,227.1l115.4-4.3c0,0,25.5,0.9,37.8,1.5c0,0,64.4,1.4,64.4,6.9V251l-173.7-11.4L172,227.1z"/>
<g>
	<polygon style="fill:#191919;" points="100.8,230.8 231.9,248.6 231.7,297.4 100.9,269.7 	"/>
	<path style="fill:#191919;" d="M354.9,81.8c-0.7-1.4-5.1-1.4-5.1-1.4l-65.3-3.2L171.8,210.8l54.9,8.1L353.4,85.3
		C353.4,85.3,355.6,83.4,354.9,81.8z"/>
</g>
<path style="fill:#282828;" d="M307.7,224.4c0,0,30.5-15,44.3-27c0,0,52.4-35.5,17-56c-13.1-7.6-47-8.1-46.5-18.8
	c0.2-5.4,30.9-37.2,30.9-37.2l-65.7-2.3L179.2,208.9l50.7,15.8L307.7,224.4z"/>
<path style="fill:#C55F2E;" d="M227.4,235.7l68.4-4.5c0,0,9.4-1.4,16.8,1.4l15.5,0.6c0,0,24.4,0.6,35.1-0.3c13.9-1.2,2,16.3,2,16.3
	l-56.4,1.7L227.4,235.7z"/>
<path style="fill:#F78F50;" d="M242.2,242.1l53.6-3.7c0,0,9.4-1.4,16.8,1.4l15.5,4.7c0,0,0.2,2.2,13.9-0.4s2,13.3,2,13.3l-35.2,0.6
	L242.2,242.1z"/>
<polygon style="fill:#04090D;" points="271.7,123.1 299.7,198.9 300.6,205 316.2,244.9 323.5,245.5 306.8,203.3 303.6,198 
	273.5,122.5 "/>
<polygon style="fill:#585858;" points="273.5,122.5 301.5,198.3 302.4,204.5 317.9,244.4 325.3,244.9 308.5,202.7 305.3,197.4 
	277.7,122.3 "/>
<path style="fill:#2B2A2A;" d="M200.6,326.8l6.1,1.6c23.6-2.2,105.9-11.2,111.6-11.7c12.2-1.2,12.9-4.1,12.9-4.1l-93.7-63.2
	l-6.1-0.8v24.1c0,0,0,20.7-18.8,23.1l-7,0.8c0,0-5.1,1.6-5.1,7S200.6,326.8,200.6,326.8z"/>
<path style="fill:#232323;" d="M335.9,242.9c0,0-0.4-1.3-1.7-2c0,0-1.4-1.9,0.7-2.4c0,0,8-2,16.2-2.5c0,0,39.4-2.5,40.2-5.5
	l-0.1,53.5c0,0-0.4,3.5-28.4,6.8c0,0-22.5,2.8-26.9,5.9L335.9,242.9z"/>
<path style="fill:#3A3A3A;" d="M337.2,242.9c0,0-0.4-1.3-1.7-2c0,0-1.4-1.9,0.7-2.4c0,0,8-2,16.2-2.5c0,0,39.4-2.5,40.2-5.5
	l-0.1,53.5c0,0-0.4,3.5-28.4,6.8c0,0-22.5,2.8-26.9,5.9L337.2,242.9z"/>
<path style="fill:#383838;" d="M200.6,326.8l6.1,1.6c23.6-2.2,105.9-11.2,111.6-11.7c12.2-1.2,12.9-4.1,12.9-4.1l5.9-70.1l-5.9,1.2
	l-99.7,4.9v24.1c0,0,0,20.7-18.8,23.1l-7,0.8c0,0-5.1,1.6-5.1,7S200.6,326.8,200.6,326.8z"/>
<polygon style="fill:#3A3A3A;" points="238.5,324.5 251.5,416 261.5,419.5 272.5,416.5 287.4,308 261.6,319.5 "/>
<polygon style="fill:#191919;" points="238.5,324.5 251.5,416 261.5,419.5 261.6,316.8 "/>
<path style="fill:#424242;" d="M206.6,328.4c0,0,111-10.3,117.7-11c12.2-1.2,12.9-4.1,12.9-4.1v-70.4c0,0-3.5,1.9-10.9,1.9
	l-88.8,4.5v24.1c0,0,0,20.7-18.8,23.1l-7,0.8c0,0-5.1,1.6-5.1,7S206.6,328.4,206.6,328.4z"/>
<polygon style="fill:#2D2D2D;" points="231.5,248.6 100.8,230.8 156.3,227.9 302.3,245.1 "/>
<path style="fill:#191919;" d="M159.7,232.3l12.3-26.2c0,0,41.1-8.2,73.7,9l-9,27.8L159.7,232.3z"/>
<polygon style="fill:#AF9651;" points="254.1,440.7 251.5,416 261.5,419.5 272.5,416.5 268.4,441.2 261.4,443 "/>
<polygon style="fill:#99833D;" points="254.1,440.7 251.5,416 261.5,419.5 261.4,443 "/>
<polygon style="fill:#AF9651;" points="162.4,405.8 165.5,406.9 177.3,405.4 177.3,407 165.4,408.9 162.4,407.5 "/>
<polygon style="fill:#BCA15C;" points="177.3,405.4 174.3,404.2 162.4,405.8 165.5,406.9 "/>
<polygon style="fill:#99833D;" points="162.4,405.8 165.5,406.9 165.4,408.9 162.4,407.5 "/>
<polygon style="fill:#AF9651;" points="177.9,412.5 180.9,413.6 192.7,412.1 192.7,413.7 180.9,415.6 177.9,414.2 "/>
<polygon style="fill:#BCA15C;" points="192.7,412.1 189.7,410.8 177.9,412.5 180.9,413.6 "/>
<polygon style="fill:#99833D;" points="177.9,412.5 180.9,413.6 180.9,415.6 177.9,414.2 "/>
<polygon style="fill:#AF9651;" points="170.2,409.1 173.3,410.3 185.1,408.7 185.1,410.4 173.2,412.3 170.2,410.9 "/>
<polygon style="fill:#BCA15C;" points="185.1,408.7 182.1,407.5 170.2,409.1 173.3,410.3 "/>
<polygon style="fill:#99833D;" points="170.2,409.1 173.3,410.3 173.2,412.3 170.2,410.9 "/>
<g>
</g>
<g>
</g>
<g>
</g>
<g>
</g>
<g>
</g>
<g>
</g>
<g>
</g>
<g>
</g>
<g>
</g>
<g>
</g>
<g>
</g>
<g>
</g>
<g>
</g>
<g>
</g>
<g>
</g>
</svg>
